<svg xmlns="http://www.w3.org/2000/svg" style="cursor: move;" width="1729" height="967"><g transform="translate(-1199.2071812756374,-693.8606051959622) scale(2.5704126749387446)"><path class="link" style="stroke-width: 1.28px; stroke-opacity: 1; stroke: rgb(0, 0, 0); fill: none;" marker-end="" d="M826.5,433.5C868,433.5 868,388 909.5,388"></path><path class="link" style="stroke-width: 1.28px; stroke-opacity: 1; stroke: rgb(0, 0, 0); fill: none;" marker-end="" d="M826.5,433.5C868,433.5 868,421 909.5,421"></path><path class="link" style="stroke-width: 1.28px; stroke-opacity: 1; stroke: rgb(0, 0, 0); fill: none;" marker-end="" d="M826.5,470.5C868,470.5 868,388 909.5,388"></path><path class="link" style="stroke-width: 1.28px; stroke-opacity: 1; stroke: rgb(0, 0, 0); fill: none;" marker-end="" d="M826.5,470.5C868,470.5 868,421 909.5,421"></path><path class="link" style="stroke-width: 1.28px; stroke-opacity: 1; stroke: rgb(0, 0, 0); fill: none;" marker-end="" d="M826.5,507.5C868,507.5 868,388 909.5,388"></path><path class="link" style="stroke-width: 1.28px; stroke-opacity: 1; stroke: rgb(0, 0, 0); fill: none;" marker-end="" d="M826.5,507.5C868,507.5 868,421 909.5,421"></path><path class="link" style="stroke-width: 1.28px; stroke-opacity: 1; stroke: rgb(0, 0, 0); fill: none;" marker-end="" d="M826.5,433.5C868,433.5 868,454 909.5,454"></path><path class="link" style="stroke-width: 1.28px; stroke-opacity: 1; stroke: rgb(0, 0, 0); fill: none;" marker-end="" d="M826.5,433.5C868,433.5 868,487 909.5,487"></path><path class="link" style="stroke-width: 1.28px; stroke-opacity: 1; stroke: rgb(0, 0, 0); fill: none;" marker-end="" d="M826.5,433.5C868,433.5 868,520 909.5,520"></path><path class="link" style="stroke-width: 1.28px; stroke-opacity: 1; stroke: rgb(0, 0, 0); fill: none;" marker-end="" d="M826.5,433.5C868,433.5 868,553 909.5,553"></path><path class="link" style="stroke-width: 1.28px; stroke-opacity: 1; stroke: rgb(0, 0, 0); fill: none;" marker-end="" d="M826.5,470.5C868,470.5 868,454 909.5,454"></path><path class="link" style="stroke-width: 1.28px; stroke-opacity: 1; stroke: rgb(0, 0, 0); fill: none;" marker-end="" d="M826.5,470.5C868,470.5 868,487 909.5,487"></path><path class="link" style="stroke-width: 1.28px; stroke-opacity: 1; stroke: rgb(0, 0, 0); fill: none;" marker-end="" d="M826.5,470.5C868,470.5 868,520 909.5,520"></path><path class="link" style="stroke-width: 1.28px; stroke-opacity: 1; stroke: rgb(0, 0, 0); fill: none;" marker-end="" d="M826.5,470.5C868,470.5 868,553 909.5,553"></path><path class="link" style="stroke-width: 1.28px; stroke-opacity: 1; stroke: rgb(0, 0, 0); fill: none;" marker-end="" d="M826.5,507.5C868,507.5 868,454 909.5,454"></path><path class="link" style="stroke-width: 1.28px; stroke-opacity: 1; stroke: rgb(0, 0, 0); fill: none;" marker-end="" d="M826.5,507.5C868,507.5 868,487 909.5,487"></path><path class="link" style="stroke-width: 1.28px; stroke-opacity: 1; stroke: rgb(0, 0, 0); fill: none;" marker-end="" d="M826.5,507.5C868,507.5 868,520 909.5,520"></path><path class="link" style="stroke-width: 1.28px; stroke-opacity: 1; stroke: rgb(0, 0, 0); fill: none;" marker-end="" d="M826.5,507.5C868,507.5 868,553 909.5,553"></path><circle r="13" class="node" id="0_0" style="fill: rgb(255, 255, 255); stroke: rgb(0, 0, 0);" cx="826.5" cy="433.5"></circle><circle r="13" class="node" id="0_1" style="fill: rgb(255, 255, 255); stroke: rgb(0, 0, 0);" cx="826.5" cy="470.5"></circle><circle r="13" class="node" id="0_2" style="fill: rgb(255, 255, 255); stroke: rgb(0, 0, 0);" cx="826.5" cy="507.5"></circle><circle r="13" class="node" id="1_0" style="fill: rgb(255, 255, 255); stroke: rgb(0, 0, 0);" cx="909.5" cy="388"></circle><circle r="13" class="node" id="1_1" style="fill: rgb(255, 255, 255); stroke: rgb(0, 0, 0);" cx="909.5" cy="421"></circle><text class="text" dy=".35em" style="font-size: 12px;" x="791.5" y="599"></text><text class="text" dy=".35em" style="font-size: 12px;" x="874.5" y="599"></text><circle r="13" class="node" id="1_2" style="fill: rgb(255, 255, 255); stroke: rgb(0, 0, 0);" cx="909.5" cy="454"></circle><circle r="13" class="node" id="1_3" style="fill: rgb(255, 255, 255); stroke: rgb(0, 0, 0);" cx="909.5" cy="487"></circle><circle r="13" class="node" id="1_4" style="fill: rgb(255, 255, 255); stroke: rgb(0, 0, 0);" cx="909.5" cy="520"></circle><circle r="13" class="node" id="1_5" style="fill: rgb(255, 255, 255); stroke: rgb(0, 0, 0);" cx="909.5" cy="553"></circle></g><defs><marker id="arrow" viewBox="0 -5 10 10" markerWidth="7" markerHeight="7" orient="auto" refX="48.4"><path d="M0,-5L10,0L0,5" style="stroke: rgb(80, 80, 80); fill: none;"></path></marker></defs></svg>